<?xml version="1.0" standalone="no"?>
<!DOCTYPE svg PUBLIC "-//W3C//DTD SVG 20010904//EN"
 "http://www.w3.org/TR/2001/REC-SVG-20010904/DTD/svg10.dtd">
<svg version="1.0" xmlns="http://www.w3.org/2000/svg"
 width="399.000000pt" height="186.000000pt" viewBox="0 0 399.000000 186.000000"
 preserveAspectRatio="xMidYMid meet">

<g transform="translate(0.000000,186.000000) scale(0.100000,-0.100000)"
fill="#000000" stroke="none">
<path d="M0 930 l0 -930 1995 0 1995 0 0 930 0 930 -1995 0 -1995 0 0 -930z
m3131 601 c75 -76 -3 -195 -106 -161 -45 15 -65 44 -65 96 0 35 5 47 31 68 44
37 101 36 140 -3z m320 0 c49 -49 35 -126 -29 -157 -29 -13 -41 -14 -73 -5
-48 15 -69 44 -69 97 0 35 5 47 31 68 44 37 101 36 140 -3z m-2291 -86 l0 -75
-175 0 -175 0 0 -485 0 -485 -90 0 -90 0 0 485 0 485 -175 0 -175 0 0 75 0 75
440 0 440 0 0 -75z m1570 -485 l0 -560 -90 0 -90 0 0 56 0 57 -40 -45 c-58
-66 -123 -92 -221 -86 -208 12 -339 180 -339 433 0 244 127 415 320 432 117
11 198 -20 255 -97 l25 -34 0 202 0 202 90 0 90 0 0 -560z m-1410 -6 c0 -243
2 -291 16 -320 62 -130 252 -118 315 21 17 36 19 70 19 313 l0 272 90 0 90 0
0 -420 0 -420 -90 0 -90 0 0 63 0 62 -20 -31 c-22 -34 -78 -76 -123 -93 -16
-6 -63 -11 -105 -11 -126 0 -205 49 -254 155 -22 48 -23 60 -26 373 l-3 322
90 0 91 0 0 -286z m1722 -7 l3 -294 25 -36 c28 -42 91 -77 136 -77 54 0 131
47 162 98 l27 47 3 278 4 277 84 0 84 0 0 -420 0 -420 -85 0 -85 0 0 68 c-1
54 -3 63 -12 47 -45 -81 -129 -125 -244 -125 -133 0 -210 51 -255 170 -17 46
-19 78 -19 365 l0 315 84 0 85 0 3 -293z"/>
<path d="M2250 1082 c-98 -52 -145 -221 -105 -377 30 -115 97 -175 194 -175
132 0 199 84 208 261 8 149 -32 250 -118 295 -40 20 -137 18 -179 -4z"/>
</g>
</svg>
